# xmcd
#
# Track frame offsets: 
#        150
#        12934
#        25005
#        39847
#        58444
#        78280
#        97295
#        112423
#        143644
#        158749
#        169408
#        183780
#        214049
#
# Disc length: 3425 seconds
#
# Revision: 0
# Processed by: cddbd v1.5.2PL0 Copyright (c) Steve Scherf et al.
# Submitted via: ExactAudioCopy v1.3
#
DISCID=ae0d5f0d
DTITLE=Various Artist - World Of Bluegrass  2003
DYEAR=1900
DGENRE=Bluegrass
TTITLE0=Blue Moon Rising - Moonshine Hard Times
TTITLE1=Meridian - Until These Troubled Times Are Gone
TTITLE2=Gerald Evans and Paradise - Headin' Home
TTITLE3=Steep Canyon Ramblers - Mr. taylor's New Home
TTITLE4=Lynwood Lunsford and The Misty Valley  Boys - Carolina Morning
TTITLE5=Daybreak - Catch Me When I Fall
TTITLE6=Ron Spears and Within Tradition - Ocean Of Teardrops
TTITLE7=StrungOver! - Buzzard's Roost
TTITLE8=The Barbed Wire Cutters - Shadows
TTITLE9=Exit 81 - Mary Ann
TTITLE10=Bearfoot Bluegrass - Good Morning Country Rain
TTITLE11=Appalachian Special
TTITLE12=Buncombe Turnpike
EXTD=
EXTT0=
EXTT1=
EXTT2=
EXTT3=
EXTT4=
EXTT5=
EXTT6=
EXTT7=
EXTT8=
EXTT9=
EXTT10=
EXTT11=
EXTT12=
PLAYORDER=
